{
    "asset" : {
        "generator" : "Khronos glTF Blender I/O v1.4.40",
        "version" : "2.0"
    },
    "scene" : 0,
    "scenes" : [
        {
            "name" : "Scene",
            "nodes" : [
                0
            ]
        }
    ],
    "nodes" : [
        {
            "mesh" : 0,
            "name" : "Cube_0",
            "rotation" : [
                -0.7071068286895752,
                0,
                0,
                0.7071067094802856
            ],
            "scale" : [
                0.17200148105621338,
                0.17200149595737457,
                0.17200149595737457
            ]
        }
    ],
    "materials" : [
        {
            "doubleSided" : true,
            "name" : "frame",
            "pbrMetallicRoughness" : {
                "baseColorFactor" : [
                    0.6859572529792786,
                    0.6859572529792786,
                    0.6859572529792786,
                    1
                ],
                "roughnessFactor" : 0.08865247666835785
            }
        },
        {
            "doubleSided" : true,
            "name" : "backing",
            "pbrMetallicRoughness" : {
                "baseColorFactor" : [
                    0.25979891419410706,
                    0.21586163341999054,
                    0.15266284346580505,
                    1
                ],
                "metallicFactor" : 0
            }
        },
        {
            "doubleSided" : true,
            "name" : "chairLower",
            "pbrMetallicRoughness" : {
                "baseColorFactor" : [
                    0.24619488418102264,
                    0.020925335586071014,
                    0.02433682605624199,
                    1
                ],
                "metallicFactor" : 0,
                "roughnessFactor" : 0.3499999940395355
            }
        },
        {
            "doubleSided" : true,
            "name" : "buttonsLower",
            "pbrMetallicRoughness" : {
                "baseColorFactor" : [
                    0.03106316365301609,
                    0.02505967766046524,
                    0.02639699913561344,
                    1
                ],
                "metallicFactor" : 0,
                "roughnessFactor" : 0.5
            }
        },
        {
            "doubleSided" : true,
            "name" : "buttonsUpper",
            "pbrMetallicRoughness" : {
                "baseColorFactor" : [
                    0.8000000715255737,
                    0.7525759339332581,
                    0.7525759339332581,
                    1
                ],
                "metallicFactor" : 0,
                "roughnessFactor" : 0.5
            }
        },
        {
            "doubleSided" : true,
            "name" : "chairUpper",
            "pbrMetallicRoughness" : {
                "baseColorFactor" : [
                    0.0018914001993834972,
                    0.03106357716023922,
                    0,
                    1
                ],
                "metallicFactor" : 0,
                "roughnessFactor" : 0.5
            }
        }
    ],
    "meshes" : [
        {
            "name" : "Cube_0",
            "primitives" : [
                {
                    "attributes" : {
                        "POSITION" : 0,
                        "NORMAL" : 1,
                        "TEXCOORD_0" : 2
                    },
                    "indices" : 3,
                    "material" : 0
                },
                {
                    "attributes" : {
                        "POSITION" : 4,
                        "NORMAL" : 5,
                        "TEXCOORD_0" : 6
                    },
                    "indices" : 7,
                    "material" : 1
                },
                {
                    "attributes" : {
                        "POSITION" : 8,
                        "NORMAL" : 9,
                        "TEXCOORD_0" : 10
                    },
                    "indices" : 11,
                    "material" : 2
                },
                {
                    "attributes" : {
                        "POSITION" : 12,
                        "NORMAL" : 13,
                        "TEXCOORD_0" : 14
                    },
                    "indices" : 15,
                    "material" : 3
                },
                {
                    "attributes" : {
                        "POSITION" : 16,
                        "NORMAL" : 17,
                        "TEXCOORD_0" : 18
                    },
                    "indices" : 15,
                    "material" : 4
                },
                {
                    "attributes" : {
                        "POSITION" : 19,
                        "NORMAL" : 20,
                        "TEXCOORD_0" : 21
                    },
                    "indices" : 11,
                    "material" : 5
                }
            ]
        }
    ],
    "accessors" : [
        {
            "bufferView" : 0,
            "componentType" : 5126,
            "count" : 9156,
            "max" : [
                6.602913856506348,
                3.8245763778686523,
                4.660499095916748
            ],
            "min" : [
                -6.166635990142822,
                -3.9380335807800293,
                -4.8296308517456055
            ],
            "type" : "VEC3"
        },
        {
            "bufferView" : 1,
            "componentType" : 5126,
            "count" : 9156,
            "type" : "VEC3"
        },
        {
            "bufferView" : 2,
            "componentType" : 5126,
            "count" : 9156,
            "type" : "VEC2"
        },
        {
            "bufferView" : 3,
            "componentType" : 5123,
            "count" : 43008,
            "type" : "SCALAR"
        },
        {
            "bufferView" : 4,
            "componentType" : 5126,
            "count" : 28248,
            "max" : [
                6.627994537353516,
                3.015146493911743,
                4.734769821166992
            ],
            "min" : [
                -5.407246112823486,
                -2.868543863296509,
                -2.629300117492676
            ],
            "type" : "VEC3"
        },
        {
            "bufferView" : 5,
            "componentType" : 5126,
            "count" : 28248,
            "type" : "VEC3"
        },
        {
            "bufferView" : 6,
            "componentType" : 5126,
            "count" : 28248,
            "type" : "VEC2"
        },
        {
            "bufferView" : 7,
            "componentType" : 5123,
            "count" : 153600,
            "type" : "SCALAR"
        },
        {
            "bufferView" : 8,
            "componentType" : 5126,
            "count" : 10917,
            "max" : [
                6.832754135131836,
                4.050057411193848,
                -0.504960298538208
            ],
            "min" : [
                -0.8140664100646973,
                -4.1635236740112305,
                -2.5291004180908203
            ],
            "type" : "VEC3"
        },
        {
            "bufferView" : 9,
            "componentType" : 5126,
            "count" : 10917,
            "type" : "VEC3"
        },
        {
            "bufferView" : 10,
            "componentType" : 5126,
            "count" : 10917,
            "type" : "VEC2"
        },
        {
            "bufferView" : 11,
            "componentType" : 5123,
            "count" : 62640,
            "type" : "SCALAR"
        },
        {
            "bufferView" : 12,
            "componentType" : 5126,
            "count" : 585,
            "max" : [
                4.861554145812988,
                2.1246368885040283,
                -1.1528605222702026
            ],
            "min" : [
                1.1571338176727295,
                -2.2381036281585693,
                -1.6006406545639038
            ],
            "type" : "VEC3"
        },
        {
            "bufferView" : 13,
            "componentType" : 5126,
            "count" : 585,
            "type" : "VEC3"
        },
        {
            "bufferView" : 14,
            "componentType" : 5126,
            "count" : 585,
            "type" : "VEC2"
        },
        {
            "bufferView" : 15,
            "componentType" : 5123,
            "count" : 3024,
            "type" : "SCALAR"
        },
        {
            "bufferView" : 16,
            "componentType" : 5126,
            "count" : 585,
            "max" : [
                -1.8623485565185547,
                2.1246368885040283,
                3.5779671669006348
            ],
            "min" : [
                -3.8899893760681152,
                -2.2381041049957275,
                0.4301985204219818
            ],
            "type" : "VEC3"
        },
        {
            "bufferView" : 17,
            "componentType" : 5126,
            "count" : 585,
            "type" : "VEC3"
        },
        {
            "bufferView" : 18,
            "componentType" : 5126,
            "count" : 585,
            "type" : "VEC2"
        },
        {
            "bufferView" : 19,
            "componentType" : 5126,
            "count" : 10917,
            "max" : [
                -0.44536828994750977,
                4.050057411193848,
                5.3256449699401855
            ],
            "min" : [
                -5.254378795623779,
                -4.163524150848389,
                -1.4270600080490112
            ],
            "type" : "VEC3"
        },
        {
            "bufferView" : 20,
            "componentType" : 5126,
            "count" : 10917,
            "type" : "VEC3"
        },
        {
            "bufferView" : 21,
            "componentType" : 5126,
            "count" : 10917,
            "type" : "VEC2"
        }
    ],
    "bufferViews" : [
        {
            "buffer" : 0,
            "byteLength" : 109872,
            "byteOffset" : 0
        },
        {
            "buffer" : 0,
            "byteLength" : 109872,
            "byteOffset" : 109872
        },
        {
            "buffer" : 0,
            "byteLength" : 73248,
            "byteOffset" : 219744
        },
        {
            "buffer" : 0,
            "byteLength" : 86016,
            "byteOffset" : 292992
        },
        {
            "buffer" : 0,
            "byteLength" : 338976,
            "byteOffset" : 379008
        },
        {
            "buffer" : 0,
            "byteLength" : 338976,
            "byteOffset" : 717984
        },
        {
            "buffer" : 0,
            "byteLength" : 225984,
            "byteOffset" : 1056960
        },
        {
            "buffer" : 0,
            "byteLength" : 307200,
            "byteOffset" : 1282944
        },
        {
            "buffer" : 0,
            "byteLength" : 131004,
            "byteOffset" : 1590144
        },
        {
            "buffer" : 0,
            "byteLength" : 131004,
            "byteOffset" : 1721148
        },
        {
            "buffer" : 0,
            "byteLength" : 87336,
            "byteOffset" : 1852152
        },
        {
            "buffer" : 0,
            "byteLength" : 125280,
            "byteOffset" : 1939488
        },
        {
            "buffer" : 0,
            "byteLength" : 7020,
            "byteOffset" : 2064768
        },
        {
            "buffer" : 0,
            "byteLength" : 7020,
            "byteOffset" : 2071788
        },
        {
            "buffer" : 0,
            "byteLength" : 4680,
            "byteOffset" : 2078808
        },
        {
            "buffer" : 0,
            "byteLength" : 6048,
            "byteOffset" : 2083488
        },
        {
            "buffer" : 0,
            "byteLength" : 7020,
            "byteOffset" : 2089536
        },
        {
            "buffer" : 0,
            "byteLength" : 7020,
            "byteOffset" : 2096556
        },
        {
            "buffer" : 0,
            "byteLength" : 4680,
            "byteOffset" : 2103576
        },
        {
            "buffer" : 0,
            "byteLength" : 131004,
            "byteOffset" : 2108256
        },
        {
            "buffer" : 0,
            "byteLength" : 131004,
            "byteOffset" : 2239260
        },
        {
            "buffer" : 0,
            "byteLength" : 87336,
            "byteOffset" : 2370264
        }
    ],
    "buffers" : [
        {
            "byteLength" : 2457600,
            "uri" : "data:application/octet-stream;base64,"
        }
    ]
}
